<?xml version="1.0" encoding="utf-8"?>
<!-- Generator: Adobe Illustrator 19.1.0, SVG Export Plug-In . SVG Version: 6.00 Build 0)  -->
<svg version="1.1" id="Calque_1" xmlns="http://www.w3.org/2000/svg" xmlns:xlink="http://www.w3.org/1999/xlink" x="0px" y="0px"
	 viewBox="0 0 516.6 261" style="enable-background:new 0 0 516.6 261;" xml:space="preserve">
<style type="text/css">
	.st0{fill:#FFFFFF;}
</style>
<path class="st0" d="M462.8,208c-1.6,0.2-2.7,0.8-3.8,1.6c-12.2,9.1-25.7,15.9-40.1,20.6c-7.8,2.6-15.8,3-23.9,1.2
	c-8.9-2-15.8-7.1-21.9-13.6c-9.2-9.8-15.4-21.4-21.2-33.2c-4-8.2-7.9-16.5-12.2-24.6c-5-9.5-12.2-15.5-23.4-18.8
	c-0.3-0.1-0.4-0.6-0.1-0.7c2.3-1.1,4.1-2.1,6-2.9c13.1-5.8,24.3-15.4,33.7-26.1c12-13.6,19.3-28.9,16.4-47.8
	c-2.5-16.3-11.1-28.5-25.8-35.8c-11.3-5.6-23.7-6.8-36.1-6.1c-14,0.8-27.1,5.6-39.2,12.6c-26.6,15.2-53.1,30.7-79.6,46.1
	c-4,2.3-8.1,4.6-12.5,7c-0.2,0.1-0.5,0-0.6-0.3c-6.9-28.9-10.9-57.5-15-86.1c-0.2-1.4-1.5-1.5-3.8,0c-5.2,2.8-10.1,6.5-15.6,8.3
	c-5.2,1.6-7.6,4.4-9,9.3c-10.6,36.3-21.9,75-32.7,111.3c-0.3,1-0.6,2.1-1.2,2.5c-5.3,3.9-17.1,9.8-22.5,12.7
	c-18.1,9.6-36.1,19.2-51.5,33c-13,11.6-22.9,25.1-26.4,42.7c-4.2,21.6,11.6,40.6,33.5,39.6c13.8-0.6,25.5-6.3,34.4-17.1
	c9.9-11.9,17.2-25.5,22.2-40c6.4-18.7,11.9-37.7,17.5-56.6c0.9-2.9,2.3-4.5,4.7-6.3c9.3-7.2,29.5-17.9,44.2-26.9
	c1.1-0.7,2.3-1.2,3.8-2c0.2-0.1,0.5,0,0.6,0.3c0.6,2.3,1.2,4.1,1.6,6c7.9,35.5,17.5,70.6,32.2,104c3.8,8.6,7.6,17.2,12.5,25.1
	c2.8,4.5,7.1,8.6,11.6,11.5c6.7,4.3,13.9,2.5,20.7-0.7c14.4-6.9,24.2-18.6,33.1-31.2c1-1.7,1.2-4-0.2-3.1c-1.5,0.9-2.5,1.5-3.9,2.3
	c-4.2,2.4-8.8,4.5-13.5,5.6c-16.5,3.9-28.3-0.7-34.6-15.6c-1.6-3.9-3.2-7.9-4.8-11.8c-13.1-32.4-22.7-65.9-33.1-99.2
	c-1.8-5.7-1.8-5.8,3.5-9c19.4-11.5,39.2-23.2,58.9-34.3c13.6-7.7,27.7-14.2,43.3-16.4c6.7-1,13.2-1.1,19.4,0.1l0,0
	c0,0,27.2,1.9,24.8,31.3c-2.4,28.7-37,50-43.3,53.9c-6.3,3.9-31.5,17.2-31.6,17.2c-2,1.1-3.9,2.2-5.9,3.3c-1,0.5-1.9,0.9-3.2,1.7
	c-0.6,0.4-0.3,1.3,0.3,1.3c2.3,0.1,4,0.3,5.7,0.4c8.9,0.7,17.9,0.7,26.6,2.5c17,3.5,30.5,12,38.6,27.6c4.1,7.9,7.8,16.1,12.2,23.9
	c5,8.7,9.8,17.5,16,25.3c11.4,14.2,26.2,22,45.2,19.9c10.5-1.1,19.7-5.3,28.3-10.9c13.7-9,26.7-19,38.4-30.6c1-1,2-2.1,2.9-3.2
	C463.4,208.4,463.2,207.9,462.8,208z M85.7,185C81,200.5,72.3,213.4,60,223.8c-3.2,2.7-7,4.9-10.9,6.3c-9.4,3.3-18.3-3.1-18.7-13
	c-0.2-5.3,1.3-10.1,3.7-14.6c7.5-13.8,18.4-24.5,31.1-33.2c9.5-6.6,19.5-12.5,30.2-19.2c0.3-0.2,0.7,0.1,0.6,0.5
	C92.4,162.6,89.1,173.8,85.7,185z M156.7,100.8l-42.3,25.3c-0.3,0.2-0.7-0.1-0.6-0.4c3-11.5,6.2-24.3,9.4-35.6
	c5.8-20.8,11.9-41.6,17.8-62.4c1.1-3.9,2.4-7.6,7.4-8.5c0.2,0,0.4,0.1,0.5,0.4c1.4,14.1,2.5,28.1,4.2,42c1.4,11.6,3.5,23.1,5.5,34.5
	C159.1,98.4,158.7,99.7,156.7,100.8z"/>
</svg>
